<?xml version="1.0" standalone="no"?>
<!DOCTYPE svg PUBLIC "-//W3C//DTD SVG 20010904//EN"
 "http://www.w3.org/TR/2001/REC-SVG-20010904/DTD/svg10.dtd">
<svg version="1.0" xmlns="http://www.w3.org/2000/svg"
 width="500.000000pt" height="500.000000pt" viewBox="0 0 500.000000 500.000000"
 preserveAspectRatio="xMidYMid meet">

<g transform="translate(0.000000,500.000000) scale(0.100000,-0.100000)"
fill="#000000" stroke="none">
<path d="M1680 2100 l0 -280 275 0 275 0 0 280 0 280 -275 0 -275 0 0 -280z
m270 211 c0 -5 -14 -11 -31 -15 -17 -3 -46 -21 -65 -40 -19 -19 -37 -48 -40
-65 -4 -17 -10 -31 -15 -31 -14 0 -10 21 10 65 16 36 16 43 3 63 -8 12 -10 22
-4 22 5 0 12 -9 15 -19 5 -19 6 -19 53 5 49 25 74 30 74 15z m78 -13 c7 -6 11
-17 8 -24 -3 -8 6 -26 19 -40 14 -15 25 -39 25 -53 0 -23 -3 -21 -19 15 -20
44 -54 74 -83 74 -10 0 -18 5 -18 11 0 11 16 9 54 -7 13 -5 17 -4 13 4 -4 6
-21 13 -37 17 -17 4 -30 11 -30 17 0 12 48 2 68 -14z m-83 -18 c-3 -5 -13 -10
-21 -10 -28 0 -67 -34 -85 -74 -10 -23 -18 -33 -18 -23 -1 30 28 77 62 97 34
21 72 27 62 10z m142 -6 c8 -20 -8 -36 -26 -25 -15 10 -8 41 9 41 6 0 13 -7
17 -16z m-148 -28 c7 -8 11 -32 8 -53 l-4 -38 -1 42 c-2 46 -10 57 -32 42 -8
-5 -10 -9 -4 -9 8 0 10 -15 7 -44 -5 -37 -2 -45 13 -49 17 -3 17 -4 -1 -3 -12
1 -21 9 -23 22 -2 12 -11 24 -22 27 -15 4 -18 -1 -16 -28 4 -43 13 -55 42 -55
13 0 24 -4 24 -9 0 -15 -54 -2 -67 16 -7 9 -13 34 -13 55 0 31 7 45 32 69 37
33 41 34 57 15z m87 -20 c22 -24 31 -43 30 -63 -3 -36 -23 -73 -39 -72 -9 0
-9 2 1 6 6 2 12 9 12 14 0 4 -7 6 -15 3 -11 -5 -13 -2 -9 10 4 9 1 16 -6 16
-11 0 -11 -12 1 -60 3 -10 -3 -15 -16 -15 -17 0 -20 7 -20 50 0 44 3 50 25 56
l25 7 -27 1 c-25 1 -28 5 -28 34 0 58 21 62 66 13z m79 -27 c4 -17 4 -33 1
-36 -9 -9 -12 -2 -19 35 -8 41 9 42 18 1z m-178 -31 c-3 -7 -5 -2 -5 12 0 14
2 19 5 13 2 -7 2 -19 0 -25z m-6 -48 c27 0 30 -3 27 -27 -2 -20 -9 -28 -23
-29 -15 -1 -16 0 -2 3 29 7 21 41 -10 45 -22 2 -28 8 -29 28 -1 22 0 22 3 3 3
-18 11 -23 34 -23z m-107 6 c3 -13 9 -32 12 -43 6 -16 5 -16 -9 -3 -19 18 -33
70 -19 70 5 0 13 -11 16 -24z m26 -1 c0 -20 49 -75 68 -76 10 0 12 -3 5 -5
-17 -8 -62 25 -79 57 -16 32 -18 53 -4 44 6 -3 10 -12 10 -20z m236 -10 c-4
-14 -10 -25 -15 -25 -5 0 -4 13 2 30 13 35 22 32 13 -5z m34 16 c0 -44 -87
-131 -131 -131 -30 0 -22 17 12 24 17 3 44 19 60 35 16 16 32 43 35 60 7 34
24 42 24 12z m-70 -66 c-7 -8 -17 -15 -22 -15 -6 0 -5 7 2 15 7 8 17 15 22 15
6 0 5 -7 -2 -15z m-220 -9 c0 -2 -8 -10 -17 -17 -16 -13 -17 -12 -4 4 13 16
21 21 21 13z m55 -16 c17 -11 40 -20 53 -20 12 0 22 -4 22 -10 0 -23 -83 3
-109 33 -18 23 -3 21 34 -3z m257 5 c0 -5 -5 -10 -11 -11 -8 -2 -7 -1 0 3 8 4
7 8 -2 15 -11 8 -11 9 -1 6 8 -2 14 -8 14 -13z m-142 -5 c-8 -5 -19 -10 -25
-10 -5 0 -3 5 5 10 8 5 20 10 25 10 6 0 3 -5 -5 -10z m-170 -41 c0 -5 -4 -9
-8 -9 -5 0 -9 7 -9 15 0 8 4 12 9 9 4 -3 8 -9 8 -15z m-35 -7 c-3 -3 -11 0
-18 7 -9 10 -8 11 6 5 10 -3 15 -9 12 -12z m35 -22 c0 -5 -4 -10 -10 -10 -5 0
-10 -13 -10 -30 0 -16 -4 -30 -10 -30 -5 0 -10 14 -10 30 0 17 -4 30 -10 30
-5 0 -10 5 -10 10 0 6 14 10 30 10 17 0 30 -4 30 -10z m40 -26 c0 -35 23 -26
32 12 5 25 6 23 5 -11 -2 -36 -5 -40 -27 -40 -22 0 -25 5 -28 39 -2 25 0 36 7
31 6 -3 11 -18 11 -31z m120 26 c0 -5 -4 -10 -10 -10 -5 0 -10 -13 -10 -30 0
-16 -4 -30 -10 -30 -5 0 -10 14 -10 30 0 17 -4 30 -10 30 -5 0 -10 5 -10 10 0
6 14 10 30 10 17 0 30 -4 30 -10z m75 -6 c19 -20 16 -43 -7 -58 -38 -23 -78
35 -42 61 23 17 29 16 49 -3z m85 1 c9 -11 10 -19 1 -28 -8 -10 -7 -17 1 -25
9 -9 8 -12 -4 -12 -9 0 -19 6 -22 13 -5 10 -7 10 -12 0 -12 -26 -24 -12 -24
27 0 35 3 40 24 40 13 0 29 -7 36 -15z"/>
<path d="M1876 2213 c-11 -11 -6 -23 9 -23 8 0 15 4 15 9 0 13 -16 22 -24 14z"/>
<path d="M1973 2214 c0 -23 2 -25 28 -20 23 4 29 2 30 -12 0 -11 2 -13 6 -4 6
15 -34 62 -52 62 -7 0 -12 -12 -12 -26z m27 1 c0 -8 -4 -15 -8 -15 -5 0 -9 7
-9 15 0 8 4 15 9 15 4 0 8 -7 8 -15z"/>
<path d="M1971 2117 c2 -29 7 -44 16 -44 9 0 10 4 3 11 -5 5 -10 23 -10 38 0
23 4 28 26 28 14 0 23 -4 19 -9 -3 -5 -1 -12 5 -16 5 -3 10 3 10 14 0 17 -6
21 -35 21 l-36 0 2 -43z"/>
<path d="M2017 1954 c-14 -14 -7 -35 11 -32 9 2 17 10 17 17 0 16 -18 25 -28
15z m18 -14 c3 -5 1 -10 -4 -10 -6 0 -11 5 -11 10 0 6 2 10 4 10 3 0 8 -4 11
-10z"/>
<path d="M2100 1950 c0 -5 7 -10 16 -10 8 0 12 5 9 10 -3 6 -10 10 -16 10 -5
0 -9 -4 -9 -10z"/>
<path d="M2375 2185 c-20 -19 -25 -34 -25 -75 0 -64 30 -100 85 -100 36 0 81
32 70 50 -3 5 -15 0 -25 -10 -45 -45 -110 -10 -110 60 0 27 7 47 20 60 24 24
72 26 90 5 7 -8 17 -12 22 -9 5 3 2 14 -8 25 -26 28 -88 26 -119 -6z"/>
<path d="M2557 2192 c-33 -37 -13 -69 56 -92 33 -10 38 -16 35 -38 -2 -22 -9
-28 -34 -30 -19 -2 -38 3 -47 13 -11 11 -18 12 -23 4 -11 -18 25 -39 68 -39
29 0 41 6 54 25 24 37 7 69 -48 87 -35 12 -43 19 -43 39 0 19 6 25 28 27 16 2
34 -1 41 -7 17 -14 29 -2 15 16 -17 20 -83 16 -102 -5z"/>
<path d="M2770 2200 c0 -5 14 -10 30 -10 l30 0 0 -90 c0 -53 4 -90 10 -90 6 0
10 37 10 90 l0 90 35 0 c19 0 35 5 35 10 0 6 -32 10 -75 10 -43 0 -75 -4 -75
-10z"/>
<path d="M3135 2183 c-4 -13 -14 -23 -21 -23 -8 0 -14 -4 -14 -10 0 -5 7 -10
15 -10 10 0 15 -16 17 -62 3 -63 3 -63 36 -66 36 -4 45 15 10 20 -20 3 -23 10
-26 56 -3 50 -2 52 22 52 15 0 26 5 26 10 0 6 -11 10 -24 10 -18 0 -26 7 -29
23 l-4 22 -8 -22z"/>
<path d="M2950 2097 c0 -69 10 -87 50 -87 14 0 31 5 38 12 9 9 12 9 12 0 0 -7
5 -12 10 -12 6 0 10 32 10 75 0 43 -4 75 -10 75 -5 0 -10 -22 -10 -48 0 -58
-17 -85 -51 -80 -22 3 -24 8 -27 66 -4 81 -22 81 -22 -1z"/>
<path d="M3247 2142 c-23 -26 -22 -94 1 -115 39 -36 100 -15 116 39 7 24 -9
74 -27 86 -22 14 -74 8 -90 -10z m81 -14 c7 -7 12 -26 12 -43 0 -36 -15 -55
-45 -55 -30 0 -45 19 -45 55 0 36 15 55 45 55 12 0 26 -5 33 -12z"/>
<path d="M3410 2085 c0 -43 4 -75 10 -75 6 0 10 24 10 53 0 55 12 77 42 77 10
0 18 5 18 10 0 14 -33 13 -48 -2 -9 -9 -12 -9 -12 0 0 7 -4 12 -10 12 -6 0
-10 -32 -10 -75z"/>
</g>
</svg>
